<?xml version="1.0" encoding="UTF-8"?>
<svg xmlns="http://www.w3.org/2000/svg" xmlns:xlink="http://www.w3.org/1999/xlink" width="20px" height="20px" viewBox="0 0 20 20" version="1.1">
<g id="surface1">
<path style=" stroke:none;fill-rule:nonzero;fill:rgb(0%,0%,0%);fill-opacity:1;" d="M 16.628906 3.371094 C 12.96875 -0.289062 7.03125 -0.289062 3.371094 3.371094 C -0.289062 7.03125 -0.289062 12.96875 3.371094 16.628906 C 7.03125 20.289062 12.96875 20.289062 16.628906 16.628906 C 20.289062 12.96875 20.289062 7.03125 16.628906 3.371094 Z M 10 18.125 C 5.519531 18.125 1.875 14.480469 1.875 10 C 1.875 5.519531 5.519531 1.875 10 1.875 C 14.480469 1.875 18.125 5.519531 18.125 10 C 18.125 14.480469 14.480469 18.125 10 18.125 Z M 10 18.125 "/>
<path style=" stroke:none;fill-rule:nonzero;fill:rgb(0%,0%,0%);fill-opacity:1;" d="M 10 5.9375 C 7.757812 5.9375 5.9375 7.757812 5.9375 10 C 5.9375 12.242188 7.757812 14.0625 10 14.0625 C 12.242188 14.0625 14.0625 12.242188 14.0625 10 C 14.058594 7.757812 12.242188 5.941406 10 5.9375 Z M 10 12.8125 C 8.445312 12.8125 7.1875 11.554688 7.1875 10 C 7.1875 8.445312 8.445312 7.1875 10 7.1875 C 11.554688 7.1875 12.8125 8.445312 12.8125 10 C 12.8125 11.550781 11.550781 12.8125 10 12.8125 Z M 10 12.8125 "/>
<path style=" stroke:none;fill-rule:nonzero;fill:rgb(0%,0%,0%);fill-opacity:1;" d="M 9.375 9.375 L 10.625 9.375 L 10.625 10.625 L 9.375 10.625 Z M 9.375 9.375 "/>
<path style=" stroke:none;fill-rule:nonzero;fill:rgb(0%,0%,0%);fill-opacity:1;" d="M 10 4.375 L 10 3.125 C 8.914062 3.121094 7.84375 3.378906 6.875 3.875 C 5.941406 4.351562 5.128906 5.035156 4.5 5.875 L 5.5 6.625 C 6.558594 5.203125 8.226562 4.367188 10 4.375 Z M 10 4.375 "/>
</g>
</svg>
