<?xml version="1.0" standalone="no"?>
<!DOCTYPE svg PUBLIC "-//W3C//DTD SVG 20010904//EN"
 "http://www.w3.org/TR/2001/REC-SVG-20010904/DTD/svg10.dtd">
<svg version="1.0" xmlns="http://www.w3.org/2000/svg"
 width="761.000000pt" height="237.000000pt" viewBox="0 0 761.000000 237.000000"
 preserveAspectRatio="xMidYMid meet">

<g transform="translate(0.000000,237.000000) scale(0.100000,-0.100000)"
fill="#000000" stroke="none">
<path d="M5096 2269 c-93 -20 -143 -45 -258 -126 -122 -86 -139 -103 -199
-200 -28 -46 -65 -105 -84 -133 -46 -69 -53 -122 -24 -189 13 -32 27 -50 35
-47 7 3 14 -1 17 -8 5 -12 70 -36 100 -36 9 0 34 17 56 38 35 33 58 83 65 142
2 8 5 22 8 30 4 8 9 28 12 43 4 15 11 25 16 22 6 -3 10 1 10 9 0 16 39 78 54
86 4 3 26 22 47 43 22 20 49 37 60 37 11 0 22 7 26 16 4 11 8 12 13 4 6 -9 14
-8 34 5 20 13 55 19 127 23 54 3 99 9 99 13 0 15 20 10 47 -10 13 -11 31 -17
39 -14 8 3 14 0 14 -7 0 -6 4 -9 9 -6 13 8 42 -4 36 -15 -3 -4 2 -7 12 -5 18
2 185 -159 175 -169 -3 -3 4 -14 15 -24 11 -11 29 -42 38 -70 10 -27 22 -48
26 -45 4 2 10 0 14 -6 3 -5 0 -10 -7 -10 -8 -1 -6 -6 6 -15 12 -9 17 -22 14
-39 -3 -14 -1 -27 5 -29 5 -1 12 -30 15 -63 3 -32 9 -62 14 -65 5 -3 4 -17 -3
-32 -9 -21 -15 -24 -26 -16 -7 6 -13 8 -13 5 0 -4 -12 1 -27 12 -50 35 -187
99 -238 111 -56 13 -155 21 -155 12 0 -3 -10 -7 -22 -8 -58 -5 -96 -11 -104
-16 -5 -2 -25 -10 -44 -15 -81 -25 -110 -40 -183 -101 -42 -35 -77 -67 -77
-72 0 -4 -26 -41 -58 -81 -32 -40 -71 -95 -87 -122 -17 -26 -45 -65 -63 -86
-28 -32 -40 -39 -88 -45 -30 -3 -87 -18 -127 -31 -62 -21 -83 -23 -166 -19
-153 9 -161 11 -177 50 -18 44 -18 153 1 230 8 33 14 79 15 102 0 23 11 106
24 185 14 79 28 177 31 218 4 41 16 108 26 149 23 90 24 142 4 181 -28 55 -98
68 -139 26 -33 -32 -43 -98 -50 -306 -4 -132 -13 -219 -37 -355 -17 -99 -35
-219 -39 -266 -5 -47 -13 -113 -20 -147 -6 -34 -8 -79 -4 -100 9 -51 49 -127
76 -146 26 -18 103 -21 144 -6 15 6 51 12 81 13 29 1 53 6 53 11 0 16 143 -2
187 -23 23 -12 48 -21 56 -21 7 0 19 -6 25 -12 7 -7 16 -13 20 -14 36 -4 141
-71 142 -90 0 -12 114 -124 125 -124 4 0 5 7 1 15 -4 11 -1 13 12 6 26 -15 56
-24 66 -22 4 1 19 -5 32 -14 20 -13 46 -14 156 -9 73 4 153 7 178 9 25 1 52 5
60 8 8 4 29 9 45 11 17 2 48 11 70 21 22 10 51 20 64 22 13 2 37 11 53 19 16
8 33 12 38 9 5 -3 26 3 47 14 71 38 106 51 134 51 15 0 30 4 34 9 5 9 62 41
72 41 1 0 3 -9 3 -21 0 -11 4 -18 9 -15 7 5 19 -41 25 -96 1 -3 16 -23 35 -43
53 -58 88 -68 210 -60 58 4 117 12 131 17 41 17 110 28 196 33 70 3 93 9 154
40 39 20 96 41 126 46 51 10 61 8 129 -20 41 -17 100 -34 132 -37 32 -3 97 -9
145 -14 48 -4 117 -18 153 -31 61 -21 68 -22 112 -8 68 21 96 65 90 138 -3 47
-9 59 -40 88 -20 18 -46 33 -56 33 -11 0 -22 4 -25 9 -4 5 -21 5 -43 0 -36 -9
-154 -10 -553 -7 -91 1 -228 -4 -305 -11 -216 -20 -276 -14 -275 31 1 22 40
102 62 125 12 13 19 26 16 29 -4 3 1 14 10 24 32 36 57 69 57 77 0 5 17 30 38
55 21 26 36 52 32 58 -3 5 -2 10 4 10 5 0 20 18 32 40 13 22 26 40 30 40 4 0
46 51 92 113 47 61 106 133 131 160 25 26 43 47 40 47 -6 0 36 53 71 91 8 9
15 20 15 26 0 6 12 19 28 29 36 24 108 100 140 149 33 51 38 120 13 178 -39
89 -90 110 -264 108 -133 -2 -243 -15 -295 -37 -93 -38 -436 -69 -485 -43 -35
19 -123 12 -181 -14 -30 -14 -56 -22 -58 -18 -5 13 -160 146 -208 178 -112 76
-338 114 -484 82z m1524 -412 c14 -7 35 -12 48 -11 25 1 28 -12 11 -65 -20
-61 -35 -90 -63 -119 -9 -9 -44 -59 -79 -109 -74 -111 -202 -289 -283 -395
-33 -42 -79 -103 -104 -136 -25 -32 -58 -66 -73 -75 -15 -9 -25 -12 -22 -7 3
6 -3 10 -13 10 -26 0 -30 24 -41 245 -6 107 -18 219 -30 277 -28 134 -37 228
-22 228 7 0 9 5 5 12 -4 7 -3 8 5 4 6 -4 14 0 17 9 5 13 9 14 15 4 6 -10 12
-9 28 5 12 11 21 15 21 11 0 -4 8 -1 18 7 20 17 98 37 192 48 36 5 85 13 110
20 25 6 57 12 73 12 15 1 27 5 27 10 0 4 21 8 48 8 26 0 54 5 62 10 19 12 20
12 50 -3z m-1211 -600 c41 -1 60 -6 57 -13 -3 -7 11 -14 31 -17 37 -6 72 -39
154 -145 40 -50 41 -55 37 -108 -4 -49 -10 -61 -41 -91 -21 -19 -37 -38 -37
-44 0 -5 -3 -8 -7 -7 -5 1 -61 -24 -125 -55 -147 -71 -192 -81 -327 -72 -205
13 -252 62 -245 257 2 49 9 81 27 115 14 27 28 56 31 67 3 10 12 16 20 13 7
-3 26 5 42 19 34 27 46 30 38 9 -4 -8 -3 -15 2 -15 14 0 44 33 44 48 0 9 7 13
19 9 11 -3 22 1 25 9 4 11 11 11 32 4 21 -9 25 -8 21 4 -4 9 0 14 11 14 22 -1
95 11 100 17 3 3 11 0 18 -5 6 -6 39 -12 73 -13z"/>
<path d="M3318 2084 c-53 -28 -64 -97 -25 -155 21 -31 28 -34 68 -32 47 2 79
28 79 64 0 35 -32 99 -60 119 -33 23 -28 23 -62 4z"/>
<path d="M3601 1940 c-24 -41 -39 -177 -51 -490 -5 -140 -17 -320 -26 -400
-20 -176 -13 -429 12 -468 37 -57 117 -75 234 -53 62 13 132 -1 181 -35 31
-21 59 -30 108 -36 36 -3 97 -14 136 -22 87 -20 118 -20 155 -1 56 29 50 112
-9 152 -30 20 -46 23 -135 23 -56 -1 -135 -5 -176 -11 -41 -5 -105 -13 -142
-17 -37 -4 -73 -13 -79 -19 -9 -9 -28 -6 -76 12 -76 27 -100 47 -112 91 -11
39 2 216 24 319 8 39 23 196 35 350 11 154 25 324 30 378 17 166 14 194 -19
228 -38 38 -66 37 -90 -1z"/>
<path d="M2323 1781 c-21 -21 -63 -51 -93 -66 -112 -56 -139 -91 -110 -146 23
-41 114 -64 161 -39 35 19 49 -9 59 -127 21 -230 23 -270 13 -288 -9 -16 -17
-10 -61 46 -49 62 -103 109 -187 161 -22 14 -60 47 -84 73 -44 47 -45 47 -96
42 -65 -7 -139 -44 -187 -94 -42 -43 -119 -207 -137 -291 -37 -173 19 -405
115 -478 31 -24 45 -28 97 -27 67 1 174 31 247 68 25 13 74 53 110 90 57 58
149 135 162 135 13 0 39 -85 53 -174 11 -64 15 -142 13 -225 -3 -128 9 -191
37 -191 6 0 20 -9 30 -20 14 -16 15 -24 6 -51 -13 -39 -14 -59 -2 -59 5 0 13
15 16 33 5 21 28 52 67 90 l60 58 -5 52 c-4 29 -11 90 -16 137 -13 114 -13
257 -1 281 16 29 93 26 161 -8 54 -27 195 -159 289 -272 35 -42 51 -54 74 -54
36 1 65 36 66 79 0 56 -99 179 -238 293 -91 74 -90 76 18 184 128 127 157 173
172 273 10 70 9 86 -7 138 -57 181 -284 335 -540 366 -55 7 -120 21 -144 31
-61 27 -75 24 -118 -20z m412 -206 c103 -48 188 -114 214 -167 54 -112 5 -226
-142 -329 -63 -44 -70 -47 -100 -37 -18 6 -59 17 -92 25 -33 9 -66 19 -74 22
-50 24 -93 379 -56 467 29 70 125 78 250 19z m-675 -390 c57 -29 76 -45 110
-94 47 -70 50 -106 21 -215 -16 -57 -28 -77 -71 -121 -66 -66 -146 -107 -223
-113 -58 -4 -58 -4 -101 40 -30 31 -47 60 -55 94 -31 123 -23 266 20 339 12
19 46 50 77 69 78 48 128 48 222 1z"/>
<path d="M1180 1665 c-47 -8 -107 -14 -133 -15 -41 0 -90 -15 -192 -60 -11 -4
-50 -19 -87 -33 -123 -46 -224 -114 -354 -240 -218 -211 -317 -397 -300 -566
4 -37 18 -100 32 -141 24 -73 26 -76 97 -126 133 -94 196 -120 337 -137 143
-16 271 -9 406 23 93 23 146 45 265 113 95 54 161 127 210 232 83 173 -25 338
-243 369 -64 10 -255 -19 -326 -48 -31 -13 -82 -29 -112 -36 -104 -23 -138
-40 -181 -88 -37 -43 -41 -51 -36 -90 3 -25 16 -59 33 -82 16 -22 39 -54 52
-71 15 -23 22 -46 22 -80 0 -57 7 -79 26 -79 10 0 14 14 14 50 0 42 4 54 27
73 75 60 101 94 107 132 10 59 37 107 73 128 116 67 332 60 405 -13 32 -32 34
-55 13 -127 -37 -126 -196 -232 -422 -284 -85 -19 -104 -20 -226 -10 -250 19
-359 77 -418 221 -8 21 -14 69 -14 117 0 78 2 86 50 180 39 76 68 117 129 180
44 46 82 81 84 78 3 -2 13 7 24 20 26 34 170 128 250 164 125 56 257 92 353
98 78 4 100 2 170 -21 91 -29 94 -30 131 -16 36 14 25 23 -12 11 -24 -9 -26
-9 -10 2 44 28 76 60 76 74 0 8 -15 30 -33 48 -56 56 -151 73 -287 50z"/>
<path d="M3291 1633 c-15 -14 -27 -50 -47 -143 -24 -115 -26 -143 -25 -347 2
-332 19 -434 78 -477 l26 -19 23 28 c22 27 22 35 25 299 4 481 -1 614 -25 651
-20 30 -27 31 -55 8z"/>
</g>
</svg>
